<svg width="133" height="26" viewBox="0 0 133 26" fill="none" xmlns="http://www.w3.org/2000/svg">
<g clip-path="url(#clip0_8811_245)">
<path d="M8.84863 15.6731V17.6155H2.76416V15.6731H8.84863ZM3.56934 5.52954V17.6155H1.0791V5.52954H3.56934ZM14.7 17.7815C14.0028 17.7815 13.3774 17.6708 12.8241 17.4495C12.2707 17.2226 11.8003 16.9099 11.4129 16.5115C11.0311 16.113 10.7378 15.651 10.533 15.1252C10.3283 14.594 10.2259 14.0295 10.2259 13.4319V13.0999C10.2259 12.4192 10.3227 11.7966 10.5164 11.2322C10.7101 10.6677 10.9868 10.178 11.3465 9.76294C11.7117 9.3479 12.1545 9.0297 12.6746 8.80835C13.1948 8.58146 13.7814 8.46802 14.4344 8.46802C15.0708 8.46802 15.6352 8.57316 16.1278 8.78345C16.6203 8.99373 17.0325 9.29256 17.3646 9.67993C17.7021 10.0673 17.9567 10.5321 18.1283 11.0745C18.2998 11.6112 18.3856 12.2089 18.3856 12.8674V13.8635H11.2469V12.2698H16.0365V12.0872C16.0365 11.7551 15.9756 11.4591 15.8538 11.199C15.7376 10.9333 15.5605 10.7231 15.3226 10.5681C15.0846 10.4132 14.7803 10.3357 14.4095 10.3357C14.0941 10.3357 13.8229 10.4049 13.596 10.5432C13.3691 10.6816 13.1838 10.8752 13.0399 11.1243C12.9015 11.3733 12.7964 11.6666 12.7244 12.0042C12.658 12.3362 12.6248 12.7014 12.6248 13.0999V13.4319C12.6248 13.7916 12.6746 14.1236 12.7742 14.428C12.8794 14.7323 13.026 14.9952 13.2142 15.2166C13.4079 15.4379 13.6403 15.6095 13.9115 15.7312C14.1881 15.8529 14.5008 15.9138 14.8494 15.9138C15.2811 15.9138 15.6823 15.8308 16.0531 15.6648C16.4294 15.4932 16.7531 15.2359 17.0242 14.8928L18.1864 16.1545C17.9982 16.4257 17.7409 16.6858 17.4144 16.9348C17.0934 17.1838 16.7061 17.3886 16.2523 17.5491C15.7985 17.704 15.2811 17.7815 14.7 17.7815ZM25.0338 15.5901V11.5891C25.0338 11.3014 24.9868 11.0551 24.8927 10.8503C24.7987 10.6401 24.652 10.4768 24.4528 10.3606C24.2591 10.2444 24.0073 10.1863 23.6974 10.1863C23.4318 10.1863 23.2021 10.2333 23.0085 10.3274C22.8148 10.4159 22.6654 10.546 22.5602 10.7175C22.4551 10.8835 22.4025 11.08 22.4025 11.3069H20.0119C20.0119 10.925 20.1004 10.5626 20.2775 10.2195C20.4546 9.87638 20.7119 9.57479 21.0495 9.3147C21.387 9.04907 21.7882 8.84155 22.2531 8.69214C22.7235 8.54272 23.2492 8.46802 23.8302 8.46802C24.5275 8.46802 25.1473 8.58423 25.6896 8.81665C26.2319 9.04907 26.658 9.39771 26.9679 9.86255C27.2834 10.3274 27.4411 10.9084 27.4411 11.6057V15.449C27.4411 15.9415 27.4715 16.3455 27.5324 16.6609C27.5933 16.9708 27.6818 17.2419 27.798 17.4744V17.6155H25.3825C25.2663 17.372 25.1777 17.0676 25.1169 16.7024C25.0615 16.3316 25.0338 15.9609 25.0338 15.5901ZM25.3493 12.1453L25.3659 13.4983H24.0295C23.714 13.4983 23.4401 13.5343 23.2077 13.6062C22.9753 13.6781 22.7843 13.7805 22.6349 13.9133C22.4855 14.0406 22.3748 14.19 22.3029 14.3616C22.2365 14.5331 22.2033 14.7213 22.2033 14.926C22.2033 15.1308 22.2503 15.3162 22.3444 15.4822C22.4385 15.6427 22.574 15.7699 22.7511 15.864C22.9282 15.9526 23.1357 15.9968 23.3737 15.9968C23.7334 15.9968 24.0461 15.9249 24.3117 15.781C24.5773 15.6371 24.7821 15.46 24.9259 15.2498C25.0753 15.0395 25.1528 14.8403 25.1584 14.6521L25.7892 15.6648C25.7007 15.8917 25.5789 16.1269 25.424 16.3704C25.2746 16.6139 25.0837 16.8435 24.8512 17.0593C24.6188 17.2696 24.3393 17.4439 24.0128 17.5823C23.6864 17.7151 23.299 17.7815 22.8507 17.7815C22.2808 17.7815 21.7633 17.6681 21.2985 17.4412C20.8392 17.2087 20.474 16.8905 20.2028 16.4866C19.9372 16.0771 19.8044 15.6122 19.8044 15.092C19.8044 14.6217 19.8929 14.2039 20.07 13.8386C20.2471 13.4734 20.5072 13.1663 20.8503 12.9172C21.1989 12.6627 21.6333 12.4718 22.1535 12.3445C22.6737 12.2117 23.2768 12.1453 23.963 12.1453H25.3493ZM32.1138 10.593V17.6155H29.7231V8.63403H31.9726L32.1138 10.593ZM34.8198 8.57593L34.7783 10.7922C34.6621 10.7756 34.521 10.7618 34.355 10.7507C34.1945 10.7341 34.0478 10.7258 33.915 10.7258C33.5775 10.7258 33.2842 10.7701 33.0351 10.8586C32.7917 10.9417 32.5869 11.0662 32.4209 11.2322C32.2604 11.3982 32.1387 11.6002 32.0557 11.8381C31.9782 12.0761 31.9339 12.3472 31.9228 12.6516L31.4414 12.5022C31.4414 11.9211 31.4995 11.3871 31.6157 10.9001C31.7319 10.4076 31.9007 9.97876 32.1221 9.61353C32.3489 9.24829 32.6256 8.96606 32.9521 8.76685C33.2786 8.56763 33.6522 8.46802 34.0727 8.46802C34.2056 8.46802 34.3411 8.47909 34.4795 8.50122C34.6178 8.51782 34.7313 8.54272 34.8198 8.57593ZM38.7288 10.5515V17.6155H36.3382V8.63403H38.5794L38.7288 10.5515ZM38.3802 12.8093H37.7327C37.7327 12.1453 37.8185 11.5476 37.9901 11.0164C38.1616 10.4796 38.4023 10.023 38.7122 9.64673C39.0221 9.26489 39.3901 8.97437 39.8162 8.77515C40.2479 8.57039 40.7293 8.46802 41.2606 8.46802C41.6811 8.46802 42.0657 8.52889 42.4144 8.65063C42.763 8.77238 43.0618 8.96606 43.3109 9.23169C43.5654 9.49731 43.7591 9.84871 43.8919 10.2859C44.0303 10.7231 44.0994 11.2571 44.0994 11.8879V17.6155H41.6922V11.8796C41.6922 11.4812 41.6369 11.1713 41.5262 10.95C41.4155 10.7286 41.2523 10.5736 41.0364 10.4851C40.8262 10.391 40.5661 10.344 40.2562 10.344C39.9352 10.344 39.6557 10.4076 39.4178 10.5349C39.1854 10.6622 38.9917 10.8393 38.8367 11.0662C38.6873 11.2875 38.5739 11.5476 38.4964 11.8464C38.4189 12.1453 38.3802 12.4662 38.3802 12.8093ZM52.3159 5.52954H54.4243L57.5288 14.4031L60.6333 5.52954H62.7417L58.3755 17.6155H56.6821L52.3159 5.52954ZM51.1787 5.52954H53.2788L53.6606 14.179V17.6155H51.1787V5.52954ZM61.7788 5.52954H63.8872V17.6155H61.3969V14.179L61.7788 5.52954ZM65.9783 13.2161V13.0417C65.9783 12.3832 66.0724 11.7773 66.2606 11.2239C66.4487 10.665 66.7226 10.1807 67.0823 9.77124C67.442 9.36174 67.8847 9.04354 68.4105 8.81665C68.9362 8.58423 69.5394 8.46802 70.22 8.46802C70.9007 8.46802 71.5066 8.58423 72.0379 8.81665C72.5691 9.04354 73.0146 9.36174 73.3743 9.77124C73.7396 10.1807 74.0162 10.665 74.2044 11.2239C74.3926 11.7773 74.4866 12.3832 74.4866 13.0417V13.2161C74.4866 13.8691 74.3926 14.475 74.2044 15.0339C74.0162 15.5873 73.7396 16.0715 73.3743 16.4866C73.0146 16.8961 72.5719 17.2143 72.0462 17.4412C71.5205 17.6681 70.9173 17.7815 70.2366 17.7815C69.556 17.7815 68.95 17.6681 68.4188 17.4412C67.893 17.2143 67.4476 16.8961 67.0823 16.4866C66.7226 16.0715 66.4487 15.5873 66.2606 15.0339C66.0724 14.475 65.9783 13.8691 65.9783 13.2161ZM68.3689 13.0417V13.2161C68.3689 13.5924 68.4022 13.9438 68.4686 14.2703C68.535 14.5968 68.6401 14.8845 68.784 15.1335C68.9334 15.377 69.1271 15.568 69.365 15.7063C69.603 15.8446 69.8935 15.9138 70.2366 15.9138C70.5687 15.9138 70.8537 15.8446 71.0916 15.7063C71.3296 15.568 71.5205 15.377 71.6644 15.1335C71.8082 14.8845 71.9134 14.5968 71.9798 14.2703C72.0517 13.9438 72.0877 13.5924 72.0877 13.2161V13.0417C72.0877 12.6765 72.0517 12.3334 71.9798 12.0125C71.9134 11.686 71.8055 11.3982 71.6561 11.1492C71.5122 10.8946 71.3213 10.6954 71.0833 10.5515C70.8453 10.4076 70.5576 10.3357 70.22 10.3357C69.8825 10.3357 69.5947 10.4076 69.3567 10.5515C69.1243 10.6954 68.9334 10.8946 68.784 11.1492C68.6401 11.3982 68.535 11.686 68.4686 12.0125C68.4022 12.3334 68.3689 12.6765 68.3689 13.0417ZM78.7858 10.593V17.6155H76.3951V8.63403H78.6447L78.7858 10.593ZM81.4918 8.57593L81.4503 10.7922C81.3341 10.7756 81.193 10.7618 81.027 10.7507C80.8665 10.7341 80.7199 10.7258 80.587 10.7258C80.2495 10.7258 79.9562 10.7701 79.7072 10.8586C79.4637 10.9417 79.2589 11.0662 79.0929 11.2322C78.9324 11.3982 78.8107 11.6002 78.7277 11.8381C78.6502 12.0761 78.6059 12.3472 78.5949 12.6516L78.1134 12.5022C78.1134 11.9211 78.1715 11.3871 78.2877 10.9001C78.4039 10.4076 78.5727 9.97876 78.7941 9.61353C79.021 9.24829 79.2977 8.96606 79.6242 8.76685C79.9507 8.56763 80.3242 8.46802 80.7448 8.46802C80.8776 8.46802 81.0132 8.47909 81.1515 8.50122C81.2898 8.51782 81.4033 8.54272 81.4918 8.57593ZM87.0278 17.7815C86.3305 17.7815 85.7052 17.6708 85.1518 17.4495C84.5984 17.2226 84.1281 16.9099 83.7407 16.5115C83.3588 16.113 83.0656 15.651 82.8608 15.1252C82.656 14.594 82.5537 14.0295 82.5537 13.4319V13.0999C82.5537 12.4192 82.6505 11.7966 82.8442 11.2322C83.0379 10.6677 83.3146 10.178 83.6743 9.76294C84.0395 9.3479 84.4822 9.0297 85.0024 8.80835C85.5226 8.58146 86.1092 8.46802 86.7622 8.46802C87.3986 8.46802 87.963 8.57316 88.4555 8.78345C88.948 8.99373 89.3603 9.29256 89.6923 9.67993C90.0299 10.0673 90.2845 10.5321 90.456 11.0745C90.6276 11.6112 90.7133 12.2089 90.7133 12.8674V13.8635H83.5747V12.2698H88.3642V12.0872C88.3642 11.7551 88.3033 11.4591 88.1816 11.199C88.0654 10.9333 87.8883 10.7231 87.6504 10.5681C87.4124 10.4132 87.108 10.3357 86.7373 10.3357C86.4218 10.3357 86.1507 10.4049 85.9238 10.5432C85.6969 10.6816 85.5115 10.8752 85.3676 11.1243C85.2293 11.3733 85.1241 11.6666 85.0522 12.0042C84.9858 12.3362 84.9526 12.7014 84.9526 13.0999V13.4319C84.9526 13.7916 85.0024 14.1236 85.102 14.428C85.2072 14.7323 85.3538 14.9952 85.542 15.2166C85.7356 15.4379 85.9681 15.6095 86.2392 15.7312C86.5159 15.8529 86.8286 15.9138 87.1772 15.9138C87.6088 15.9138 88.0101 15.8308 88.3808 15.6648C88.7571 15.4932 89.0809 15.2359 89.352 14.8928L90.5141 16.1545C90.326 16.4257 90.0686 16.6858 89.7421 16.9348C89.4212 17.1838 89.0338 17.3886 88.58 17.5491C88.1263 17.704 87.6088 17.7815 87.0278 17.7815Z" fill="#717CFF"/>
<path d="M113.508 14.6154H124.678L119.798 19.4954C119.408 19.8854 119.408 20.5254 119.798 20.9154C120.188 21.3054 120.818 21.3054 121.208 20.9154L127.798 14.3254C128.188 13.9354 128.188 13.3054 127.798 12.9154L121.218 6.31543C121.031 6.12818 120.777 6.02295 120.513 6.02295C120.248 6.02295 119.995 6.12818 119.808 6.31543C119.418 6.70543 119.418 7.33543 119.808 7.72543L124.678 12.6154H113.508C112.958 12.6154 112.508 13.0654 112.508 13.6154C112.508 14.1654 112.958 14.6154 113.508 14.6154Z" fill="#37474F"/>
<mask id="mask0_8811_245" style="mask-type:luminance" maskUnits="userSpaceOnUse" x="112" y="6" width="17" height="16">
<path d="M113.508 14.6154H124.678L119.798 19.4954C119.408 19.8854 119.408 20.5254 119.798 20.9154C120.188 21.3054 120.818 21.3054 121.208 20.9154L127.798 14.3254C128.188 13.9354 128.188 13.3054 127.798 12.9154L121.218 6.31543C121.031 6.12818 120.777 6.02295 120.513 6.02295C120.248 6.02295 119.995 6.12818 119.808 6.31543C119.418 6.70543 119.418 7.33543 119.808 7.72543L124.678 12.6154H113.508C112.958 12.6154 112.508 13.0654 112.508 13.6154C112.508 14.1654 112.958 14.6154 113.508 14.6154Z" fill="white"/>
</mask>
<g mask="url(#mask0_8811_245)">
</g>
</g>
<defs>
<clipPath id="clip0_8811_245">
<rect width="133" height="25" fill="white" transform="translate(0 0.846191)"/>
</clipPath>
</defs>
</svg>
